<?xml version="1.0" standalone="no"?>
<!DOCTYPE svg PUBLIC "-//W3C//DTD SVG 1.1//EN" "http://www.w3.org/Graphics/SVG/1.1/DTD/svg11.dtd">
<!--Generator: Xara Designer (www.xara.com), SVG filter version: 6.6.0.0-->
<svg fill="none" fill-rule="evenodd" stroke="black" stroke-width="0.501" stroke-linejoin="bevel" stroke-miterlimit="10" font-family="Times New Roman" font-size="16" style="font-variant-ligatures:none" xmlns:xlink="http://www.w3.org/1999/xlink" xmlns="http://www.w3.org/2000/svg" version="1.1" overflow="visible" width="99.399pt" height="20.238pt" viewBox="0.001 110.902 99.399 20.238">
 <defs>
	</defs>
 <g id="Layer 1" transform="scale(1 -1)">
  <path d="M 5.929,-128.753 C 6.971,-128.75 7.886,-128.628 8.666,-128.387 C 9.443,-128.151 10.095,-127.822 10.61,-127.401 C 11.128,-126.985 11.516,-126.502 11.773,-125.957 C 12.029,-125.412 12.158,-124.829 12.158,-124.213 C 12.15,-123.477 12.003,-122.864 11.714,-122.375 C 11.431,-121.886 11.05,-121.491 10.576,-121.188 C 10.104,-120.882 9.583,-120.641 9.02,-120.461 C 8.452,-120.279 7.886,-120.13 7.318,-120.013 C 6.753,-119.894 6.236,-119.775 5.762,-119.656 C 5.289,-119.539 4.909,-119.389 4.624,-119.209 C 4.336,-119.03 4.189,-118.789 4.181,-118.488 C 4.178,-118.251 4.253,-118.038 4.397,-117.846 C 4.545,-117.66 4.788,-117.509 5.122,-117.397 C 5.456,-117.285 5.898,-117.225 6.451,-117.225 C 7.065,-117.225 7.7,-117.315 8.355,-117.496 C 9.011,-117.675 9.675,-117.947 10.35,-118.309 L 11.575,-115.356 C 11.11,-115.085 10.597,-114.86 10.042,-114.68 C 9.485,-114.497 8.904,-114.361 8.299,-114.269 C 7.694,-114.176 7.084,-114.13 6.469,-114.13 C 5.428,-114.132 4.516,-114.255 3.736,-114.489 C 2.955,-114.725 2.307,-115.05 1.789,-115.467 C 1.27,-115.886 0.886,-116.369 0.627,-116.918 C 0.371,-117.468 0.243,-118.057 0.243,-118.69 C 0.251,-119.429 0.396,-120.044 0.684,-120.538 C 0.972,-121.031 1.353,-121.43 1.828,-121.738 C 2.303,-122.045 2.822,-122.289 3.39,-122.471 C 3.956,-122.656 4.526,-122.808 5.092,-122.93 C 5.659,-123.05 6.181,-123.172 6.654,-123.299 C 7.126,-123.42 7.511,-123.575 7.797,-123.762 C 8.085,-123.951 8.231,-124.202 8.24,-124.513 C 8.247,-124.863 8.073,-125.138 7.711,-125.343 C 7.352,-125.547 6.767,-125.654 5.949,-125.659 C 5.402,-125.657 4.852,-125.599 4.301,-125.482 C 3.745,-125.368 3.213,-125.205 2.702,-124.998 C 2.192,-124.792 1.726,-124.549 1.307,-124.273 L 0.001,-127.208 C 0.45,-127.517 0.985,-127.787 1.613,-128.019 C 2.243,-128.251 2.923,-128.431 3.661,-128.559 C 4.396,-128.688 5.151,-128.753 5.929,-128.753 Z" fill="#84b660" fill-rule="nonzero" stroke-linejoin="round" stroke-linecap="round" stroke="none" stroke-width="0.25" marker-start="none" marker-end="none"/>
  <path d="M 20.901,-117.401 C 20.255,-117.401 19.653,-117.503 19.096,-117.701 C 18.543,-117.896 18.05,-118.194 17.626,-118.587 L 17.626,-113.564 L 13.81,-113.564 L 13.81,-128.475 L 17.626,-128.475 L 17.626,-123.208 C 17.631,-122.607 17.726,-122.117 17.917,-121.737 C 18.104,-121.356 18.361,-121.078 18.69,-120.9 C 19.016,-120.722 19.383,-120.632 19.798,-120.636 C 20.357,-120.629 20.79,-120.805 21.103,-121.162 C 21.421,-121.52 21.579,-122.085 21.586,-122.864 L 21.586,-128.475 L 25.403,-128.475 L 25.403,-122.242 C 25.398,-121.401 25.284,-120.673 25.058,-120.063 C 24.83,-119.451 24.517,-118.947 24.11,-118.557 C 23.702,-118.164 23.228,-117.872 22.68,-117.683 C 22.137,-117.494 21.543,-117.4 20.901,-117.401 Z" fill="#84b660" fill-rule="nonzero" stroke-linejoin="round" stroke-linecap="round" stroke="none" stroke-width="0.25" marker-start="none" marker-end="none"/>
  <path d="M 45.767,-115.986 C 45.052,-115.983 44.43,-116.087 43.895,-116.293 C 43.359,-116.501 42.911,-116.819 42.55,-117.249 L 42.55,-116.168 L 38.914,-116.168 L 38.914,-130.958 L 42.732,-130.958 L 42.732,-126.096 C 43.103,-126.478 43.545,-126.764 44.051,-126.952 C 44.56,-127.145 45.133,-127.24 45.767,-127.24 C 46.509,-127.236 47.204,-127.107 47.848,-126.848 C 48.493,-126.588 49.058,-126.213 49.547,-125.724 C 50.035,-125.234 50.417,-124.642 50.694,-123.951 C 50.965,-123.26 51.107,-122.481 51.11,-121.615 C 51.107,-120.748 50.965,-119.967 50.694,-119.274 C 50.417,-118.581 50.035,-117.989 49.547,-117.503 C 49.058,-117.01 48.493,-116.638 47.848,-116.378 C 47.204,-116.118 46.509,-115.987 45.767,-115.986 Z M 44.962,-124.208 C 44.53,-124.206 44.141,-124.104 43.797,-123.901 C 43.453,-123.699 43.18,-123.403 42.978,-123.019 C 42.777,-122.632 42.675,-122.165 42.672,-121.61 C 42.675,-121.06 42.777,-120.591 42.978,-120.205 C 43.18,-119.819 43.453,-119.525 43.797,-119.324 C 44.141,-119.12 44.53,-119.017 44.962,-119.016 C 45.397,-119.017 45.784,-119.12 46.128,-119.324 C 46.473,-119.525 46.746,-119.819 46.945,-120.205 C 47.147,-120.591 47.249,-121.06 47.255,-121.61 C 47.249,-122.165 47.147,-122.632 46.945,-123.019 C 46.746,-123.403 46.473,-123.699 46.128,-123.901 C 45.784,-124.104 45.397,-124.206 44.962,-124.208 Z" fill="#84b660" fill-rule="nonzero" stroke-linejoin="round" stroke-linecap="round" stroke="none" stroke-width="0.25" marker-start="none" marker-end="none"/>
  <path d="M 54.786,-114.957 C 55.258,-114.955 55.666,-114.861 56.017,-114.684 C 56.364,-114.507 56.632,-114.261 56.823,-113.947 C 57.015,-113.633 57.111,-113.277 57.118,-112.869 C 57.111,-112.486 57.015,-112.146 56.823,-111.85 C 56.632,-111.556 56.364,-111.323 56.017,-111.156 C 55.666,-110.989 55.258,-110.904 54.786,-110.902 C 54.314,-110.905 53.906,-110.996 53.556,-111.174 C 53.209,-111.349 52.938,-111.591 52.749,-111.895 C 52.555,-112.199 52.458,-112.543 52.457,-112.93 C 52.458,-113.316 52.555,-113.66 52.749,-113.964 C 52.938,-114.27 53.209,-114.509 53.556,-114.686 C 53.906,-114.866 54.314,-114.955 54.786,-114.957 Z M 52.879,-127.058 L 56.695,-127.058 L 56.695,-116.165 L 52.879,-116.165 L 52.879,-127.058 Z" fill="#84b660" fill-rule="nonzero" stroke-linejoin="round" stroke-linecap="round" stroke="none" stroke-width="0.25" marker-start="none" marker-end="none"/>
  <path d="M 65.235,-123.945 C 65.074,-124.056 64.893,-124.14 64.693,-124.198 C 64.491,-124.257 64.284,-124.287 64.071,-124.287 C 63.725,-124.285 63.452,-124.178 63.252,-123.964 C 63.051,-123.753 62.949,-123.443 62.946,-123.04 L 62.946,-119.423 L 65.418,-119.423 L 65.418,-116.571 L 62.946,-116.571 L 62.946,-113.735 L 59.128,-113.735 L 59.128,-123.079 C 59.131,-124.01 59.304,-124.785 59.65,-125.4 C 59.994,-126.016 60.49,-126.478 61.147,-126.782 C 61.802,-127.087 62.593,-127.24 63.528,-127.24 C 64.036,-127.24 64.522,-127.189 64.983,-127.087 C 65.443,-126.985 65.843,-126.827 66.181,-126.615 L 65.235,-123.945 Z" fill="#84b660" fill-rule="nonzero" stroke-linejoin="round" stroke-linecap="round" stroke="none" stroke-width="0.25" marker-start="none" marker-end="none"/>
  <path d="M 69.458,-127.24 C 69.897,-127.236 70.288,-127.138 70.633,-126.945 C 70.975,-126.753 71.247,-126.486 71.445,-126.148 C 71.643,-125.807 71.744,-125.415 71.75,-124.968 C 71.744,-124.509 71.643,-124.114 71.445,-123.777 C 71.247,-123.439 70.975,-123.181 70.633,-122.995 C 70.288,-122.815 69.897,-122.719 69.458,-122.716 C 69.026,-122.719 68.634,-122.815 68.29,-122.995 C 67.946,-123.181 67.674,-123.439 67.474,-123.777 C 67.274,-124.112 67.169,-124.509 67.166,-124.968 C 67.169,-125.415 67.274,-125.807 67.474,-126.146 C 67.674,-126.486 67.946,-126.753 68.29,-126.945 C 68.634,-127.138 69.026,-127.236 69.458,-127.24 Z" fill="#84b660" fill-rule="nonzero" stroke-linejoin="round" stroke-linecap="round" stroke="none" stroke-width="0.25" marker-start="none" marker-end="none"/>
  <path d="M 80.632,-115.986 C 79.946,-115.986 79.307,-116.099 78.716,-116.329 C 78.124,-116.557 77.612,-116.898 77.177,-117.351 L 77.177,-116.168 L 73.54,-116.168 L 73.54,-127.058 L 77.357,-127.058 L 77.357,-121.793 C 77.361,-121.191 77.457,-120.699 77.646,-120.319 C 77.837,-119.941 78.092,-119.661 78.419,-119.483 C 78.745,-119.305 79.114,-119.216 79.526,-119.218 C 80.085,-119.213 80.522,-119.389 80.835,-119.745 C 81.151,-120.101 81.31,-120.669 81.317,-121.449 L 81.317,-127.058 L 85.134,-127.058 L 85.134,-120.826 C 85.128,-119.984 85.016,-119.256 84.79,-118.646 C 84.562,-118.035 84.245,-117.533 83.841,-117.14 C 83.432,-116.746 82.958,-116.455 82.412,-116.267 C 81.867,-116.078 81.274,-115.983 80.632,-115.986 Z" fill="#84b660" fill-rule="nonzero" stroke-linejoin="round" stroke-linecap="round" stroke="none" stroke-width="0.25" marker-start="none" marker-end="none"/>
  <path d="M 95.765,-116.168 L 95.765,-117.491 C 95.391,-116.98 94.918,-116.601 94.342,-116.354 C 93.767,-116.108 93.102,-115.983 92.345,-115.986 C 91.616,-115.987 90.933,-116.112 90.29,-116.354 C 89.649,-116.599 89.081,-116.95 88.589,-117.408 C 88.097,-117.866 87.712,-118.418 87.429,-119.06 C 87.15,-119.705 87.008,-120.427 87.001,-121.228 C 87.008,-122.035 87.15,-122.762 87.429,-123.408 C 87.712,-124.056 88.097,-124.608 88.589,-125.068 C 89.081,-125.528 89.649,-125.879 90.29,-126.123 C 90.933,-126.37 91.616,-126.492 92.345,-126.494 C 93.041,-126.494 93.662,-126.386 94.206,-126.175 C 94.752,-125.964 95.209,-125.64 95.582,-125.211 L 95.582,-125.571 C 95.591,-126.426 95.36,-127.081 94.895,-127.529 C 94.429,-127.977 93.685,-128.204 92.666,-128.205 C 92.236,-128.205 91.793,-128.158 91.342,-128.066 C 90.894,-127.971 90.466,-127.838 90.058,-127.664 C 89.652,-127.487 89.296,-127.282 88.988,-127.038 L 87.604,-129.713 C 88.05,-130.029 88.56,-130.291 89.13,-130.504 C 89.703,-130.712 90.314,-130.873 90.973,-130.978 C 91.63,-131.087 92.311,-131.14 93.01,-131.14 C 94.368,-131.142 95.522,-130.922 96.472,-130.482 C 97.422,-130.043 98.146,-129.373 98.646,-128.475 C 99.145,-127.577 99.396,-126.441 99.4,-125.068 L 99.4,-116.168 L 95.765,-116.168 Z M 93.251,-123.462 C 92.792,-123.459 92.381,-123.364 92.023,-123.179 C 91.664,-122.993 91.381,-122.732 91.174,-122.398 C 90.966,-122.065 90.862,-121.675 90.858,-121.233 C 90.862,-120.786 90.966,-120.397 91.174,-120.065 C 91.381,-119.734 91.664,-119.477 92.023,-119.295 C 92.381,-119.112 92.792,-119.019 93.251,-119.016 C 93.711,-119.019 94.118,-119.112 94.474,-119.295 C 94.829,-119.477 95.109,-119.734 95.311,-120.065 C 95.517,-120.397 95.619,-120.785 95.625,-121.228 C 95.619,-121.674 95.517,-122.064 95.311,-122.398 C 95.109,-122.732 94.829,-122.993 94.474,-123.179 C 94.118,-123.364 93.711,-123.459 93.251,-123.462 Z" fill="#84b660" fill-rule="nonzero" stroke-linejoin="round" stroke-linecap="round" stroke="none" stroke-width="0.25" marker-start="none" marker-end="none"/>
  <g id="Group" stroke-linejoin="miter" stroke-linecap="round" stroke="none" stroke-width="0.5" fill="#ffffff">
   <path d="M 26.567,-126.73 L 26.567,-119.143 C 26.567,-118.184 27.347,-117.401 28.309,-117.401 L 35.966,-117.401 C 36.928,-117.401 37.708,-118.184 37.708,-119.143 L 37.708,-126.73 C 37.708,-127.694 36.928,-128.475 35.966,-128.475 L 28.309,-128.475 C 27.347,-128.475 26.567,-127.694 26.567,-126.73 Z M 33.773,-126.566 C 34.274,-126.374 34.7,-126.102 35.067,-125.753 C 35.432,-125.405 35.714,-124.996 35.913,-124.512 C 36.116,-124.034 36.214,-123.505 36.217,-122.928 C 36.214,-122.352 36.116,-121.828 35.913,-121.347 C 35.714,-120.875 35.432,-120.462 35.067,-120.11 C 34.7,-119.764 34.274,-119.493 33.773,-119.302 C 33.276,-119.113 32.727,-119.016 32.131,-119.013 C 31.546,-119.016 31.001,-119.113 30.505,-119.302 C 30.009,-119.493 29.581,-119.764 29.212,-120.11 C 28.846,-120.462 28.567,-120.875 28.366,-121.347 C 28.163,-121.828 28.064,-122.352 28.061,-122.928 C 28.064,-123.505 28.163,-124.034 28.366,-124.512 C 28.567,-124.996 28.846,-125.405 29.212,-125.753 C 29.581,-126.102 30.009,-126.374 30.505,-126.566 C 31.001,-126.757 31.546,-126.855 32.131,-126.858 C 32.727,-126.855 33.276,-126.757 33.773,-126.566 Z M 30.972,-125.026 C 30.634,-124.834 30.364,-124.56 30.167,-124.198 C 29.968,-123.844 29.866,-123.42 29.865,-122.928 C 29.866,-122.435 29.968,-122.015 30.167,-121.657 C 30.364,-121.3 30.634,-121.028 30.972,-120.834 C 31.311,-120.636 31.698,-120.534 32.131,-120.534 C 32.571,-120.534 32.961,-120.636 33.305,-120.834 C 33.646,-121.028 33.914,-121.3 34.11,-121.657 C 34.304,-122.015 34.406,-122.435 34.413,-122.928 C 34.406,-123.42 34.304,-123.844 34.11,-124.198 C 33.914,-124.56 33.646,-124.834 33.305,-125.026 C 32.961,-125.223 32.571,-125.324 32.131,-125.324 C 31.698,-125.324 31.311,-125.223 30.972,-125.026 Z M 36.723,-119.606 C 37.048,-119.309 37.071,-118.804 36.777,-118.479 C 36.481,-118.152 35.976,-118.125 35.65,-118.42 C 35.325,-118.718 35.298,-119.226 35.595,-119.549 C 35.891,-119.877 36.396,-119.902 36.723,-119.606 Z" marker-start="none" marker-end="none"/>
  </g>
 </g>
 <g id="Layer_1" transform="scale(1 -1)"/>
</svg>
