<?xml version="1.0" standalone="no"?>
<!DOCTYPE svg PUBLIC "-//W3C//DTD SVG 1.1//EN" "http://www.w3.org/Graphics/SVG/1.1/DTD/svg11.dtd">
<!--Generator: Xara Designer (www.xara.com), SVG filter version: 6.6.0.0-->
<svg fill="none" fill-rule="evenodd" stroke="black" stroke-width="0.501" stroke-linejoin="bevel" stroke-miterlimit="10" font-family="Times New Roman" font-size="16" style="font-variant-ligatures:none" xmlns:xlink="http://www.w3.org/1999/xlink" xmlns="http://www.w3.org/2000/svg" version="1.1" overflow="visible" width="74.482pt" height="16.348pt" viewBox="177.704 -1096.63 74.482 16.348">
 <defs>
	</defs>
 <g id="Page background" transform="scale(1 -1)"/>
 <g id="MouseOff" transform="scale(1 -1)">
  <g id="Group" stroke-linejoin="round" stroke-linecap="round" stroke="none">
   <g id="Group_1" fill-rule="nonzero" stroke-width="0.043" fill="#84b660">
    <g id="Group_2">
     <path d="M 199.449,1085.07 C 198.889,1085.07 198.385,1085.17 197.937,1085.37 C 197.489,1085.56 197.137,1085.84 196.881,1086.2 C 196.625,1086.56 196.497,1086.98 196.497,1087.46 L 197.961,1087.46 C 197.993,1087.1 198.135,1086.8 198.387,1086.57 C 198.639,1086.34 198.993,1086.22 199.449,1086.22 C 199.921,1086.22 200.289,1086.34 200.553,1086.57 C 200.817,1086.79 200.949,1087.09 200.949,1087.45 C 200.949,1087.73 200.867,1087.95 200.703,1088.13 C 200.539,1088.31 200.335,1088.44 200.091,1088.54 C 199.847,1088.64 199.509,1088.74 199.077,1088.85 C 198.533,1089 198.091,1089.14 197.751,1089.29 C 197.411,1089.44 197.121,1089.67 196.881,1089.98 C 196.641,1090.29 196.521,1090.71 196.521,1091.23 C 196.521,1091.71 196.641,1092.13 196.881,1092.49 C 197.121,1092.85 197.457,1093.12 197.889,1093.32 C 198.321,1093.51 198.821,1093.6 199.389,1093.6 C 200.197,1093.6 200.859,1093.4 201.375,1093 C 201.891,1092.59 202.177,1092.04 202.233,1091.34 L 200.721,1091.34 C 200.697,1091.64 200.553,1091.9 200.289,1092.12 C 200.025,1092.33 199.677,1092.44 199.245,1092.44 C 198.853,1092.44 198.533,1092.34 198.285,1092.14 C 198.037,1091.94 197.913,1091.65 197.913,1091.28 C 197.913,1091.02 197.991,1090.81 198.147,1090.65 C 198.303,1090.48 198.501,1090.35 198.741,1090.26 C 198.981,1090.16 199.309,1090.06 199.725,1089.94 C 200.277,1089.79 200.727,1089.64 201.075,1089.49 C 201.423,1089.34 201.719,1089.1 201.963,1088.79 C 202.207,1088.47 202.329,1088.05 202.329,1087.52 C 202.329,1087.1 202.215,1086.69 201.987,1086.32 C 201.759,1085.94 201.427,1085.64 200.991,1085.41 C 200.555,1085.18 200.041,1085.07 199.449,1085.07 Z" marker-start="none" marker-end="none"/>
     <path d="M 207.369,1091.88 C 207.873,1091.88 208.323,1091.77 208.719,1091.55 C 209.115,1091.34 209.427,1091.02 209.655,1090.59 C 209.883,1090.17 209.997,1089.66 209.997,1089.06 L 209.997,1085.16 L 208.641,1085.16 L 208.641,1088.85 C 208.641,1089.44 208.493,1089.9 208.197,1090.21 C 207.901,1090.53 207.497,1090.69 206.985,1090.69 C 206.473,1090.69 206.067,1090.53 205.767,1090.21 C 205.467,1089.9 205.317,1089.44 205.317,1088.85 L 205.317,1085.16 L 203.949,1085.16 L 203.949,1094.04 L 205.317,1094.04 L 205.317,1091 C 205.549,1091.28 205.843,1091.5 206.199,1091.65 C 206.555,1091.8 206.945,1091.88 207.369,1091.88 Z" marker-start="none" marker-end="none"/>
     <path d="M 214.604,1085.05 C 213.98,1085.05 213.416,1085.19 212.912,1085.47 C 212.408,1085.76 212.012,1086.16 211.724,1086.67 C 211.436,1087.19 211.292,1087.79 211.292,1088.47 C 211.292,1089.14 211.44,1089.74 211.736,1090.26 C 212.032,1090.78 212.436,1091.18 212.948,1091.45 C 213.46,1091.74 214.032,1091.88 214.664,1091.88 C 215.296,1091.88 215.868,1091.74 216.38,1091.45 C 216.892,1091.18 217.296,1090.78 217.592,1090.26 C 217.888,1089.74 218.036,1089.14 218.036,1088.47 C 218.036,1087.8 217.884,1087.2 217.58,1086.68 C 217.276,1086.16 216.862,1085.76 216.338,1085.47 C 215.814,1085.19 215.236,1085.05 214.604,1085.05 Z M 214.604,1086.24 C 214.956,1086.24 215.286,1086.32 215.594,1086.49 C 215.902,1086.66 216.152,1086.91 216.344,1087.24 C 216.536,1087.58 216.632,1087.99 216.632,1088.47 C 216.632,1088.95 216.54,1089.35 216.356,1089.68 C 216.172,1090.02 215.928,1090.27 215.624,1090.43 C 215.32,1090.6 214.992,1090.69 214.64,1090.69 C 214.288,1090.69 213.962,1090.6 213.662,1090.43 C 213.362,1090.27 213.124,1090.02 212.948,1089.68 C 212.772,1089.35 212.684,1088.95 212.684,1088.47 C 212.684,1087.76 212.866,1087.2 213.23,1086.82 C 213.594,1086.43 214.052,1086.24 214.604,1086.24 Z" marker-start="none" marker-end="none"/>
     <path d="M 220.762,1090.8 C 220.994,1091.1 221.31,1091.36 221.71,1091.56 C 222.11,1091.77 222.562,1091.88 223.066,1091.88 C 223.642,1091.88 224.168,1091.73 224.644,1091.45 C 225.12,1091.17 225.494,1090.77 225.766,1090.26 C 226.038,1089.74 226.174,1089.16 226.174,1088.49 C 226.174,1087.83 226.038,1087.23 225.766,1086.71 C 225.494,1086.18 225.12,1085.78 224.644,1085.49 C 224.168,1085.19 223.642,1085.05 223.066,1085.05 C 222.562,1085.05 222.114,1085.15 221.722,1085.35 C 221.33,1085.56 221.01,1085.81 220.762,1086.12 L 220.762,1082.01 L 219.394,1082.01 L 219.394,1091.77 L 220.762,1091.77 L 220.762,1090.8 Z M 224.782,1088.49 C 224.782,1088.95 224.688,1089.34 224.5,1089.67 C 224.312,1090.01 224.064,1090.26 223.756,1090.43 C 223.448,1090.6 223.118,1090.69 222.766,1090.69 C 222.422,1090.69 222.096,1090.6 221.788,1090.42 C 221.48,1090.25 221.232,1089.99 221.044,1089.66 C 220.856,1089.32 220.762,1088.92 220.762,1088.47 C 220.762,1088.01 220.856,1087.61 221.044,1087.27 C 221.232,1086.93 221.48,1086.68 221.788,1086.5 C 222.096,1086.32 222.422,1086.24 222.766,1086.24 C 223.118,1086.24 223.448,1086.33 223.756,1086.51 C 224.064,1086.68 224.312,1086.95 224.5,1087.29 C 224.688,1087.64 224.782,1088.04 224.782,1088.49 Z" marker-start="none" marker-end="none"/>
     <path d="M 228.229,1092.64 C 227.981,1092.64 227.773,1092.73 227.605,1092.9 C 227.437,1093.06 227.353,1093.27 227.353,1093.52 C 227.353,1093.77 227.437,1093.98 227.605,1094.14 C 227.773,1094.31 227.981,1094.4 228.229,1094.4 C 228.469,1094.4 228.673,1094.31 228.841,1094.14 C 229.009,1093.98 229.093,1093.77 229.093,1093.52 C 229.093,1093.27 229.009,1093.06 228.841,1092.9 C 228.673,1092.73 228.469,1092.64 228.229,1092.64 Z M 228.901,1091.77 L 228.901,1085.16 L 227.533,1085.16 L 227.533,1091.77 L 228.901,1091.77 Z" marker-start="none" marker-end="none"/>
     <path d="M 232.299,1090.65 L 232.299,1086.99 C 232.299,1086.74 232.357,1086.57 232.473,1086.46 C 232.589,1086.35 232.787,1086.3 233.067,1086.3 L 233.907,1086.3 L 233.907,1085.16 L 232.827,1085.16 C 232.211,1085.16 231.739,1085.3 231.411,1085.59 C 231.083,1085.88 230.919,1086.34 230.919,1086.99 L 230.919,1090.65 L 230.139,1090.65 L 230.139,1091.77 L 230.919,1091.77 L 230.919,1093.41 L 232.299,1093.41 L 232.299,1091.77 L 233.907,1091.77 L 233.907,1090.65 L 232.299,1090.65 Z" marker-start="none" marker-end="none"/>
     <path d="M 235.72,1085.07 C 235.472,1085.07 235.264,1085.16 235.096,1085.32 C 234.928,1085.49 234.844,1085.7 234.844,1085.95 C 234.844,1086.19 234.928,1086.4 235.096,1086.57 C 235.264,1086.74 235.472,1086.82 235.72,1086.82 C 235.96,1086.82 236.164,1086.74 236.332,1086.57 C 236.5,1086.4 236.584,1086.19 236.584,1085.95 C 236.584,1085.7 236.5,1085.49 236.332,1085.32 C 236.164,1085.16 235.96,1085.07 235.72,1085.07 Z" marker-start="none" marker-end="none"/>
     <path d="M 241.399,1091.88 C 241.919,1091.88 242.385,1091.77 242.797,1091.55 C 243.209,1091.34 243.531,1091.02 243.763,1090.59 C 243.995,1090.17 244.111,1089.66 244.111,1089.06 L 244.111,1085.16 L 242.755,1085.16 L 242.755,1088.85 C 242.755,1089.44 242.607,1089.9 242.311,1090.21 C 242.015,1090.53 241.611,1090.69 241.099,1090.69 C 240.587,1090.69 240.181,1090.53 239.881,1090.21 C 239.581,1089.9 239.431,1089.44 239.431,1088.85 L 239.431,1085.16 L 238.063,1085.16 L 238.063,1091.77 L 239.431,1091.77 L 239.431,1091.01 C 239.655,1091.28 239.941,1091.5 240.289,1091.65 C 240.637,1091.8 241.007,1091.88 241.399,1091.88 Z" marker-start="none" marker-end="none"/>
     <path d="M 248.514,1091.88 C 249.026,1091.88 249.48,1091.77 249.876,1091.57 C 250.272,1091.37 250.582,1091.11 250.806,1090.81 L 250.806,1091.77 L 252.186,1091.77 L 252.186,1085.05 C 252.186,1084.44 252.058,1083.9 251.802,1083.42 C 251.546,1082.94 251.176,1082.57 250.692,1082.3 C 250.208,1082.03 249.63,1081.89 248.958,1081.89 C 248.062,1081.89 247.318,1082.1 246.726,1082.52 C 246.134,1082.94 245.798,1083.51 245.718,1084.23 L 247.074,1084.23 C 247.178,1083.89 247.4,1083.61 247.74,1083.4 C 248.08,1083.18 248.486,1083.08 248.958,1083.08 C 249.51,1083.08 249.956,1083.25 250.296,1083.58 C 250.636,1083.92 250.806,1084.41 250.806,1085.05 L 250.806,1086.15 C 250.574,1085.84 250.26,1085.58 249.864,1085.37 C 249.468,1085.15 249.018,1085.05 248.514,1085.05 C 247.938,1085.05 247.412,1085.19 246.936,1085.49 C 246.46,1085.78 246.084,1086.18 245.808,1086.71 C 245.532,1087.23 245.394,1087.83 245.394,1088.49 C 245.394,1089.16 245.532,1089.74 245.808,1090.26 C 246.084,1090.77 246.46,1091.17 246.936,1091.45 C 247.412,1091.73 247.938,1091.88 248.514,1091.88 Z M 250.806,1088.47 C 250.806,1088.92 250.712,1089.32 250.524,1089.66 C 250.336,1089.99 250.09,1090.25 249.786,1090.42 C 249.482,1090.6 249.154,1090.69 248.802,1090.69 C 248.45,1090.69 248.122,1090.6 247.818,1090.43 C 247.514,1090.26 247.268,1090.01 247.08,1089.67 C 246.892,1089.34 246.798,1088.95 246.798,1088.49 C 246.798,1088.04 246.892,1087.64 247.08,1087.29 C 247.268,1086.95 247.516,1086.68 247.824,1086.51 C 248.132,1086.33 248.458,1086.24 248.802,1086.24 C 249.154,1086.24 249.482,1086.32 249.786,1086.5 C 250.09,1086.68 250.336,1086.93 250.524,1087.27 C 250.712,1087.61 250.806,1088.01 250.806,1088.47 Z" marker-start="none" marker-end="none"/>
    </g>
   </g>
   <path d="M 178.961,1092.81 C 181.364,1096.62 186.415,1097.77 190.233,1095.37 C 194.051,1092.96 195.199,1087.91 192.795,1084.1 C 190.392,1080.28 185.341,1079.13 181.523,1081.53 C 177.705,1083.94 176.557,1088.99 178.961,1092.81 Z" fill="#ffffff" stroke-width="0.427" marker-start="none" marker-end="none"/>
   <path d="M 185.711,1086.87 C 185.903,1086.67 186.126,1086.58 186.379,1086.58 C 186.631,1086.58 186.854,1086.67 187.048,1086.87 C 187.241,1087.06 187.337,1087.28 187.337,1087.53 C 187.337,1087.79 187.241,1088.01 187.048,1088.2 C 186.854,1088.4 186.631,1088.49 186.379,1088.49 C 186.126,1088.49 185.903,1088.4 185.711,1088.2 C 185.516,1088.01 185.42,1087.79 185.42,1087.53 C 185.42,1087.28 185.516,1087.06 185.711,1086.87 Z M 184.952,1090.39 L 187.805,1090.39 L 186.379,1092.48 L 184.952,1090.39 Z M 188.854,1090.39 L 191.127,1090.39 C 191.26,1090.39 191.377,1090.34 191.473,1090.25 C 191.57,1090.17 191.618,1090.05 191.618,1089.92 C 191.469,1089.32 191.247,1088.49 190.95,1087.41 C 190.652,1086.33 190.465,1085.66 190.392,1085.37 C 190.257,1084.91 189.953,1084.68 189.478,1084.68 L 183.28,1084.68 C 182.804,1084.68 182.5,1084.91 182.365,1085.37 L 181.162,1089.79 C 181.147,1089.82 181.139,1089.86 181.139,1089.92 C 181.139,1090.05 181.189,1090.17 181.285,1090.25 C 181.381,1090.34 181.497,1090.39 181.63,1090.39 L 183.905,1090.39 L 185.978,1093.51 C 186.067,1093.64 186.201,1093.71 186.379,1093.71 C 186.557,1093.71 186.691,1093.64 186.78,1093.51 L 188.854,1090.39 Z" fill="#84b660" fill-rule="nonzero" stroke-width="0.277" marker-start="none" marker-end="none"/>
  </g>
 </g>
</svg>
