<?xml version="1.0" standalone="no"?>
<!DOCTYPE svg PUBLIC "-//W3C//DTD SVG 1.1//EN" "http://www.w3.org/Graphics/SVG/1.1/DTD/svg11.dtd">
<!--Generator: Xara Designer (www.xara.com), SVG filter version: 6.6.0.0-->
<svg fill="none" fill-rule="evenodd" stroke="black" stroke-width="0.501" stroke-linejoin="bevel" stroke-miterlimit="10" font-family="Times New Roman" font-size="16" style="font-variant-ligatures:none" xmlns:xlink="http://www.w3.org/1999/xlink" xmlns="http://www.w3.org/2000/svg" version="1.1" overflow="visible" width="26.049pt" height="14.795pt" viewBox="15.715 -19.881 26.049 14.795">
 <defs>
	</defs>
 <g id="Layer 1" transform="scale(1 -1)">
  <rect x="15.716" y="5.087" width="26.048" height="14.794" rx="1.4424" ry="1.4424" fill="#84b660" stroke="none" stroke-linecap="round" stroke-width="0.75" stroke-linejoin="miter"/>
  <g id="Group" fill-rule="nonzero" stroke-linejoin="round" stroke-linecap="round" stroke="none" stroke-width="0.375" fill="#ffffff">
   <g id="Group_1">
    <path d="M 23.197,8.905 L 20.638,16.063 L 22.205,16.063 L 24.017,10.765 L 25.77,16.063 L 27.303,16.063 L 24.74,8.905 L 23.197,8.905 Z" marker-start="none" marker-end="none"/>
    <path d="M 27.997,8.905 L 27.997,16.063 L 29.442,16.063 L 29.442,8.905 L 27.997,8.905 Z" marker-start="none" marker-end="none"/>
    <path d="M 30.818,8.905 L 30.818,16.063 L 33.138,16.063 C 34.017,16.063 34.59,16.027 34.857,15.956 C 35.267,15.848 35.61,15.615 35.887,15.255 C 36.163,14.895 36.302,14.431 36.302,13.861 C 36.302,13.422 36.222,13.052 36.063,12.753 C 35.903,12.453 35.7,12.218 35.455,12.047 C 35.209,11.876 34.959,11.763 34.705,11.708 C 34.36,11.639 33.86,11.605 33.206,11.605 L 32.264,11.605 L 32.264,8.905 L 30.818,8.905 Z M 32.264,14.852 L 32.264,12.821 L 33.055,12.821 C 33.624,12.821 34.005,12.858 34.197,12.933 C 34.389,13.008 34.54,13.125 34.649,13.285 C 34.758,13.444 34.813,13.63 34.813,13.841 C 34.813,14.102 34.736,14.317 34.583,14.486 C 34.43,14.655 34.236,14.761 34.002,14.803 C 33.83,14.836 33.483,14.852 32.962,14.852 L 32.264,14.852 Z" marker-start="none" marker-end="none"/>
   </g>
  </g>
 </g>
 <g id="Layer_1" transform="scale(1 -1)"/>
</svg>
